<svg xmlns="http://www.w3.org/2000/svg" viewBox="0 0 1200 630" width="100%" height="100%">
  <defs>
    <style>.t{font-family:-apple-system,BlinkMacSystemFont,'Segoe UI',Roboto,Helvetica,Arial,sans-serif;}</style>
    <marker id="darw" viewBox="0 0 10 10" refX="8" refY="5" markerWidth="7" markerHeight="7" orient="auto-start-reverse">
      <path d="M 0 0 L 10 5 L 0 10 z" fill="#fbbf24"/>
    </marker>
  </defs>
  <rect width="1200" height="630" fill="#0d0d0d"/>
  <rect x="0" y="0" width="1200" height="8" fill="#f74c00"/>

  <line x1="560" y1="24" x2="560" y2="66" stroke="#6b6b6b" stroke-width="4"/>
  <path d="M 560 66 q 22 0 22 20" fill="none" stroke="#6b6b6b" stroke-width="4"/>
  <rect x="500" y="96" width="120" height="90" rx="8" fill="#161616" stroke="#fbbf24" stroke-width="3"/>
  <line x1="500" y1="96" x2="620" y2="186" stroke="#fbbf24" stroke-width="2"/>
  <line x1="620" y1="96" x2="500" y2="186" stroke="#fbbf24" stroke-width="2"/>
  <text class="t" x="660" y="150" font-size="24" fill="#fbbf24">build</text>

  <line x1="560" y1="206" x2="560" y2="252" stroke="#fbbf24" stroke-width="4" marker-end="url(#darw)"/>

  <rect x="450" y="262" width="220" height="100" rx="14" fill="#161616" stroke="#f74c00" stroke-width="3"/>
  <text class="t" x="560" y="322" font-size="28" fill="#ffffff" text-anchor="middle">proxy</text>

  <line x1="560" y1="362" x2="560" y2="410" stroke="#fbbf24" stroke-width="4"/>
  <line x1="560" y1="410" x2="452" y2="462" stroke="#fbbf24" stroke-width="4" marker-end="url(#darw)"/>
  <line x1="560" y1="410" x2="668" y2="462" stroke="#fbbf24" stroke-width="4" marker-end="url(#darw)"/>
  <circle cx="440" cy="500" r="30" fill="#161616" stroke="#67e8f9" stroke-width="3"/>
  <text class="t" x="440" y="562" font-size="18" fill="#67e8f9" text-anchor="middle">client</text>
  <circle cx="680" cy="500" r="30" fill="#161616" stroke="#67e8f9" stroke-width="3"/>
  <text class="t" x="680" y="562" font-size="18" fill="#67e8f9" text-anchor="middle">client</text>

  <g transform="translate(880,340) rotate(-18)">
    <rect x="-70" y="-32" width="140" height="64" rx="12" fill="#161616" stroke="#fbbf24" stroke-width="3"/>
    <circle cx="-52" cy="0" r="6" fill="#fbbf24"/>
    <text class="t" x="10" y="8" font-size="24" fill="#fbbf24" text-anchor="middle">ship it</text>
  </g>

  <text class="t" x="80" y="70" font-size="15" font-weight="700" letter-spacing="4" fill="#fbbf24">WSPROXY DEPLOY</text>
  <text class="t" x="78" y="145" font-size="50" font-weight="800" fill="#ffffff">wsProxy Deploy</text>
</svg>
