<svg xmlns="http://www.w3.org/2000/svg" viewBox="0 0 1200 630" width="100%" height="100%">
  <defs>
    <marker id="ah" viewBox="0 0 10 10" refX="7" refY="5" markerWidth="7" markerHeight="7" orient="auto-start-reverse">
      <path d="M 0 0 L 10 5 L 0 10 z" fill="#d9f99d"/>
    </marker>
  </defs>

  <rect width="1200" height="630" fill="#1e2410"/>

  <g stroke="#d9f99d" stroke-width="4" marker-end="url(#ah)">
    <line x1="280" y1="260" x2="280" y2="316"/>
    <line x1="600" y1="260" x2="600" y2="316"/>
    <line x1="920" y1="260" x2="920" y2="316"/>
  </g>
  <g stroke="#d9f99d" stroke-width="4" marker-end="url(#ah)">
    <line x1="400" y1="382" x2="400" y2="444"/>
    <line x1="800" y1="382" x2="800" y2="444"/>
  </g>

  <g fill="#65a30d" stroke="#d9f99d" stroke-width="3">
    <rect x="205" y="160" width="150" height="100" rx="12"/>
    <rect x="525" y="160" width="150" height="100" rx="12"/>
    <rect x="845" y="160" width="150" height="100" rx="12"/>
  </g>

  <rect x="80" y="320" width="1040" height="62" rx="31" fill="#65a30d" stroke="#d9f99d" stroke-width="3"/>

  <g fill="#1e2410" stroke="#d9f99d" stroke-width="2">
    <rect x="245" y="330" width="110" height="42" rx="21"/>
    <rect x="525" y="330" width="150" height="42" rx="21"/>
    <rect x="860" y="330" width="120" height="42" rx="21"/>
  </g>

  <g fill="#2b331a" stroke="#65a30d" stroke-width="3">
    <rect x="305" y="450" width="190" height="110" rx="18"/>
    <rect x="705" y="450" width="190" height="110" rx="18"/>
  </g>

  <g font-family="system-ui, -apple-system, Segoe UI, Roboto, Helvetica, Arial, sans-serif" text-anchor="middle">
    <g font-size="18" font-weight="700" fill="#ffffff">
      <text x="280" y="218">PRODUCER</text>
      <text x="600" y="218">PRODUCER</text>
      <text x="920" y="218">PRODUCER</text>
    </g>
    <g font-size="20" font-weight="700" fill="#ffffff">
      <text x="400" y="513">CONSUMER</text>
      <text x="800" y="513">CONSUMER</text>
    </g>
    <g font-size="17" font-weight="700" fill="#d9f99d">
      <text x="300" y="357">KAFKA</text>
      <text x="600" y="357">RABBITMQ</text>
      <text x="920" y="357">NATS</text>
    </g>
  </g>

  <g font-family="system-ui, -apple-system, Segoe UI, Roboto, Helvetica, Arial, sans-serif">
    <text x="80" y="70" font-size="46" font-weight="800" fill="#ffffff">Messaging Systems Compared</text>
    <text x="82" y="108" font-size="20" font-weight="700" letter-spacing="3" fill="#65a30d">MESSAGING SYSTEMS</text>
  </g>
</svg>
