<?xml version="1.0" standalone="no"?>
<!DOCTYPE svg PUBLIC "-//W3C//DTD SVG 20010904//EN"
 "http://www.w3.org/TR/2001/REC-SVG-20010904/DTD/svg10.dtd">
<svg version="1.0" xmlns="http://www.w3.org/2000/svg"
 width="1257.000000pt" height="1257.000000pt" viewBox="0 0 1257.000000 1257.000000"
 preserveAspectRatio="xMidYMid meet">
<metadata>
Created by potrace 1.14, written by Peter Selinger 2001-2017
</metadata>
<g transform="translate(0.000000,1257.000000) scale(0.100000,-0.100000)"
fill="#000000" stroke="none">
<path d="M0 11870 c1 -678 1 -702 20 -733 25 -41 25 -84 0 -122 -20 -30 -20
-51 -20 -1856 l0 -1826 25 -13 c14 -7 32 -32 41 -56 23 -59 12 -109 -32 -150
l-34 -33 0 -275 c0 -186 3 -276 11 -276 21 0 42 -74 40 -140 -1 -35 -4 -66 -6
-68 -2 -2 -13 1 -24 8 l-21 11 0 -476 c0 -377 3 -476 13 -472 8 2 12 27 12 73
0 49 7 83 22 116 18 40 27 48 58 54 50 9 80 -7 107 -57 13 -23 29 -51 35 -63
14 -23 17 -74 7 -101 -7 -17 -74 -55 -99 -55 -19 0 -19 -7 0 -59 13 -39 61
-112 78 -119 4 -2 7 -10 7 -17 0 -16 27 -27 36 -14 4 6 11 5 21 -3 20 -16 50
-12 83 12 14 10 59 34 100 53 70 33 78 40 98 86 20 44 22 54 11 95 -7 30 -9
78 -5 134 4 48 9 121 12 163 4 52 -1 121 -15 215 -19 128 -41 327 -56 499 -5
65 -28 281 -56 540 -6 61 -13 238 -14 395 -2 157 -6 349 -11 428 l-7 142 -26
7 c-41 9 -61 33 -61 70 0 46 34 109 62 117 42 11 91 6 109 -10 38 -34 121 20
140 90 6 22 32 65 58 96 25 30 64 81 85 113 21 31 42 57 47 57 9 0 117 94 237
207 37 34 63 65 60 69 -4 3 -19 -7 -33 -25 -36 -42 -94 -57 -139 -36 -107 51
-49 224 76 225 15 0 31 12 45 35 25 38 84 62 127 51 38 -9 66 -61 67 -121 0
-27 3 -44 6 -37 2 6 12 12 21 12 10 0 31 9 47 20 17 11 38 20 48 20 10 0 36 9
57 20 22 11 40 18 40 16 0 -3 19 3 43 13 23 10 66 21 94 25 29 4 74 16 100 28
45 20 63 22 283 22 201 -1 250 -4 337 -22 56 -12 119 -28 140 -37 20 -9 53
-18 73 -21 20 -4 51 -20 72 -40 21 -19 45 -34 54 -34 9 0 27 -9 41 -20 14 -11
32 -20 40 -20 7 0 45 -29 83 -65 38 -36 74 -65 79 -65 6 0 32 -23 58 -52 26
-28 66 -71 88 -94 22 -22 58 -63 80 -90 47 -57 107 -119 151 -155 34 -28 92
-114 114 -169 7 -19 31 -67 52 -106 45 -83 46 -102 14 -152 -13 -20 -27 -52
-31 -70 -4 -22 -16 -37 -36 -47 -57 -30 -122 -181 -134 -315 -4 -40 0 -108 9
-174 9 -60 16 -145 16 -187 0 -76 -1 -79 -31 -101 -39 -29 -55 -60 -64 -123
-7 -51 -40 -110 -120 -215 -52 -68 -75 -113 -109 -215 -33 -100 -40 -112 -97
-172 -41 -44 -109 -135 -109 -146 0 -3 -36 -65 -81 -139 -44 -73 -98 -171
-120 -218 -22 -47 -44 -92 -48 -100 -5 -8 -16 -49 -26 -90 -10 -41 -27 -106
-38 -145 -10 -38 -28 -126 -39 -195 -32 -199 -45 -216 -132 -165 -25 15 -78
31 -130 40 -49 9 -121 24 -162 35 -40 11 -76 20 -79 20 -2 0 -12 14 -21 31
-11 22 -14 44 -9 78 11 82 -39 306 -72 318 -20 8 -17 53 4 53 26 0 -84 99
-132 120 -22 9 -58 17 -80 19 -41 2 -136 52 -224 118 -24 18 -50 33 -57 33 -7
0 -20 7 -29 16 -9 9 -37 19 -62 22 l-45 5 6 -29 c10 -46 -16 -56 -92 -37 -59
15 -63 18 -104 79 -27 42 -67 84 -114 119 -77 59 -94 66 -94 36 0 -11 -4 -22
-8 -25 -5 -3 -15 -66 -22 -140 -12 -131 -8 -208 12 -233 6 -7 7 -13 2 -13 -5
0 -2 -5 6 -10 10 -6 11 -10 3 -10 -8 0 -13 -14 -13 -34 0 -19 -5 -38 -10 -41
-6 -3 -10 -14 -10 -23 0 -35 -21 -90 -56 -147 -20 -33 -31 -61 -25 -63 6 -2
11 -9 11 -16 0 -7 11 -18 25 -24 37 -17 59 -68 59 -135 -1 -44 2 -57 13 -53 7
3 13 2 13 -2 0 -11 72 -12 177 -1 73 7 102 15 141 38 68 40 103 46 149 26 90
-40 123 -59 167 -97 37 -32 45 -45 40 -62 -7 -24 -43 -66 -56 -66 -13 0 -108
-73 -108 -83 0 -4 -17 -23 -37 -42 -21 -19 -39 -39 -39 -45 -1 -5 -2 -14 -3
-20 0 -5 -8 -10 -17 -10 -35 0 -4 -25 58 -48 53 -19 68 -29 74 -51 4 -14 6
-30 5 -35 -1 -4 3 -14 9 -21 17 -20 1 -64 -26 -71 -45 -11 -203 13 -284 44
-14 5 -31 8 -38 6 -7 -1 -8 0 -2 3 16 8 11 23 -8 23 -10 0 -25 9 -35 20 -10
12 -22 18 -27 15 -5 -3 -22 0 -37 8 -15 8 -46 13 -68 11 -22 -2 -34 -1 -28 2
18 8 16 24 -2 24 -8 0 -15 -6 -15 -14 0 -8 -5 -18 -11 -22 -7 -4 -9 0 -5 14 6
17 1 21 -31 26 -21 4 -54 12 -73 18 -19 6 -42 13 -50 15 -8 3 -31 7 -50 8 -65
7 -188 30 -196 37 -4 5 -17 8 -28 9 -17 0 -18 2 -4 7 15 6 13 12 -10 51 -25
42 -45 44 -23 2 6 -11 11 -28 10 -38 0 -11 -5 -7 -11 12 -6 17 -19 36 -29 43
-15 10 -16 17 -7 37 6 14 17 25 24 25 31 0 48 95 20 106 -11 4 -13 12 -5 31
12 32 12 53 -1 53 -5 0 -10 -9 -10 -20 0 -25 -12 -25 -35 0 -21 24 -41 26 -49
5 -3 -8 -13 -15 -21 -15 -9 0 -42 -12 -73 -26 -40 -18 -69 -25 -99 -22 l-43 3
0 -2527 0 -2528 1625 0 1625 0 2 78 c2 129 -3 151 -28 118 -7 -11 -17 -16 -21
-13 -3 4 -2 7 3 8 5 0 -13 9 -39 20 -50 20 -67 18 -67 -6 0 -19 -64 -85 -83
-85 -8 0 -17 -7 -21 -15 -3 -10 -19 -15 -47 -15 -36 0 -40 -2 -29 -15 7 -9 10
-19 6 -22 -10 -10 -120 -4 -124 6 -2 5 -12 7 -22 4 -11 -3 -20 -1 -20 4 0 5
-16 26 -35 46 -36 38 -44 57 -23 57 8 0 6 6 -4 17 -14 14 -20 14 -33 3 -12
-10 -13 -15 -4 -21 9 -5 8 -14 -5 -33 -21 -32 -65 -35 -127 -6 l-44 19 -3 -24
c-3 -24 -4 -24 -29 -8 -18 12 -54 18 -119 21 l-94 4 0 -26 c0 -23 -4 -26 -34
-26 -19 0 -38 -5 -41 -10 -9 -14 -82 -12 -88 3 -4 9 -7 9 -18 -1 -11 -10 -17
-8 -32 10 -13 16 -20 19 -24 11 -3 -9 -31 -13 -92 -13 -54 0 -92 -5 -99 -12
-9 -9 -15 -9 -24 0 -7 7 -26 12 -43 12 -17 0 -37 6 -44 13 -11 9 -14 9 -18 0
-6 -16 -103 -18 -103 -3 0 6 -7 10 -15 10 -8 0 -19 8 -24 19 -7 13 -18 17 -36
14 -14 -3 -25 -9 -25 -14 0 -20 -30 -7 -36 15 -3 13 -21 32 -39 42 l-34 18
-36 -37 c-40 -41 -64 -46 -89 -18 -13 15 -14 20 -4 24 9 4 5 13 -15 31 -15 14
-27 30 -27 36 0 5 -11 10 -23 10 -29 0 -57 29 -57 58 0 15 6 22 20 22 13 0 20
7 20 20 0 19 4 21 38 24 7 1 23 14 36 29 13 15 28 27 35 27 6 0 11 6 11 14 0
8 20 22 44 32 26 11 51 31 61 47 16 27 18 27 35 12 17 -16 20 -15 39 4 12 12
21 30 21 42 0 28 37 78 65 89 37 14 93 0 123 -31 15 -15 38 -39 51 -53 14 -14
28 -23 33 -20 4 3 8 -4 8 -14 0 -21 25 -36 41 -26 6 3 35 9 65 13 45 6 57 5
70 -10 12 -13 22 -15 47 -9 18 4 80 11 139 14 81 4 116 2 149 -9 32 -11 51
-13 78 -5 59 16 95 12 144 -20 51 -32 119 -40 172 -20 63 24 137 30 270 21 54
-3 153 21 168 41 7 10 10 10 14 1 6 -16 43 -17 43 -2 0 7 10 9 25 7 16 -3 29
0 33 9 9 15 103 32 151 27 19 -2 31 2 35 11 3 8 10 15 16 15 6 0 9 -3 7 -7 -3
-5 1 -13 8 -20 10 -9 15 -6 24 13 7 16 19 24 36 24 16 0 25 6 25 15 0 8 6 15
14 15 19 0 114 62 121 78 8 21 -3 32 -31 32 -35 0 -92 26 -115 52 -29 35 -50
89 -47 123 6 59 71 41 225 -63 29 -19 53 -39 53 -44 0 -22 66 -6 111 28 52 38
55 44 38 76 -6 11 -8 22 -5 25 3 3 54 -24 113 -60 210 -128 325 -170 643 -238
213 -45 326 -54 655 -52 199 1 236 4 390 32 240 44 342 67 485 113 223 71 473
194 626 309 43 32 82 59 87 59 4 0 7 -9 7 -21 0 -24 66 -90 113 -114 63 -32
157 -29 244 6 28 11 40 10 100 -9 58 -19 105 -24 313 -32 325 -13 462 -26 476
-45 8 -11 10 -70 6 -194 -2 -98 -2 -190 1 -203 17 -66 122 -129 272 -163 55
-13 125 -34 155 -47 31 -14 73 -28 95 -32 22 -4 75 -18 117 -32 63 -21 81 -31
98 -58 11 -19 20 -41 20 -50 0 -10 16 -38 35 -63 19 -25 35 -50 35 -54 0 -5
808 -9 1800 -9 l1800 0 0 1351 0 1351 -22 -7 c-75 -22 -94 -24 -136 -9 -24 8
-47 12 -51 9 -4 -2 -17 6 -27 18 -44 51 -104 134 -104 143 0 5 39 10 86 11 47
1 91 6 97 11 7 6 23 10 37 11 14 0 45 4 70 8 l45 8 3 602 c2 589 2 603 -19
655 -22 56 -69 108 -98 108 -9 0 -41 7 -70 16 -44 13 -50 18 -40 30 9 11 8 14
-4 14 -8 0 -17 -5 -19 -11 -2 -7 -9 -5 -17 5 -12 14 -12 16 3 10 9 -3 16 -1
16 5 0 6 -9 11 -21 11 -11 0 -18 4 -14 10 3 5 12 7 20 3 11 -4 15 2 15 21 0
14 5 26 11 26 8 0 7 5 -1 15 -11 13 -10 18 5 29 13 9 15 15 6 20 -6 4 -9 11
-6 15 6 10 -40 107 -55 116 -5 3 -10 14 -10 23 0 9 -5 24 -10 32 -9 13 -11 13
-19 0 -17 -25 -26 -1 -13 33 8 20 9 33 2 35 -14 5 15 32 34 32 9 0 42 -13 74
-29 85 -44 134 -64 161 -67 13 -2 29 -8 34 -13 37 -37 37 -54 36 1272 -1 705
-3 1273 -6 1262 -2 -11 -18 -92 -34 -180 -16 -88 -43 -227 -58 -310 -16 -82
-34 -190 -40 -240 -7 -49 -21 -153 -33 -230 -11 -77 -22 -189 -24 -248 -3 -91
-1 -113 15 -143 22 -40 20 -54 -9 -72 -14 -8 -20 -9 -20 -1 0 6 -6 9 -13 6
-10 -4 -12 3 -9 24 3 20 -1 31 -11 35 -18 7 -43 -5 -30 -15 18 -13 33 -64 33
-111 0 -54 -26 -90 -65 -90 -29 0 -65 35 -72 72 -3 16 -13 32 -22 35 -43 13
-61 29 -75 65 -27 66 -18 112 29 153 l24 20 -17 83 c-15 79 -15 93 6 290 27
245 26 241 3 270 -28 33 -47 28 -108 -30 -30 -29 -60 -55 -66 -57 -7 -2 -23
-12 -36 -22 -27 -22 -59 -24 -95 -8 -17 8 -30 9 -38 2 -7 -5 -31 -11 -52 -12
-22 -1 -44 -8 -50 -15 -22 -26 -72 -51 -106 -53 -19 -1 -53 -5 -76 -8 -42 -7
-55 0 -87 46 -8 11 -29 21 -47 24 l-33 4 6 -55 c6 -56 -5 -108 -28 -133 -9 -8
-32 -13 -64 -13 -42 1 -51 -1 -51 -16 0 -9 -12 -25 -28 -36 -15 -10 -42 -42
-61 -70 -27 -42 -34 -64 -39 -119 -4 -63 -7 -70 -38 -93 -23 -18 -54 -29 -96
-34 -35 -5 -79 -13 -98 -19 -50 -16 -262 -14 -284 2 -33 24 -48 155 -22 190 7
9 20 17 28 17 10 0 18 13 23 36 7 39 27 76 60 110 11 12 38 41 60 64 l39 43
-24 16 c-13 9 -35 26 -49 39 -13 12 -28 22 -32 22 -5 0 -9 7 -9 15 0 8 -5 15
-11 15 -20 0 -66 56 -74 88 -3 18 -12 32 -19 32 -11 0 -22 25 -41 98 -4 12
-10 22 -16 22 -5 0 -6 27 -3 63 5 56 4 60 -8 39 l-14 -23 -11 23 c-7 13 -15
39 -19 58 -3 19 -11 38 -16 41 -6 4 -12 60 -13 125 -2 66 -8 142 -14 169 -32
146 -33 158 -19 166 10 7 10 11 -4 21 -11 9 -19 35 -23 81 -7 77 -13 96 -55
182 -16 33 -46 97 -66 142 -34 76 -99 156 -140 173 -12 5 -43 30 -200 162 -51
42 -123 97 -161 122 -38 24 -76 52 -83 61 -8 9 -34 31 -59 48 -72 48 -92 89
-52 102 10 3 26 14 36 25 10 11 26 20 35 20 9 0 22 11 28 25 7 14 19 28 27 32
9 3 29 31 45 62 28 56 113 161 131 161 13 0 45 28 103 89 28 30 83 87 122 125
39 39 78 82 86 96 9 14 53 46 98 70 57 31 90 56 107 81 20 31 32 38 71 44 57
8 113 36 130 64 7 12 19 21 28 21 8 0 35 9 59 20 25 11 66 23 92 26 55 6 170
33 195 46 10 5 28 3 45 -4 40 -16 171 -17 178 -1 5 16 77 17 91 3 13 -13 92
-27 235 -43 95 -11 111 -16 150 -45 57 -43 269 -167 300 -177 13 -4 60 -42
104 -84 44 -42 99 -92 123 -110 23 -18 42 -38 42 -45 0 -7 15 -33 33 -57 19
-24 41 -57 50 -74 8 -16 35 -50 60 -74 29 -29 48 -57 52 -78 7 -41 56 -93 115
-123 25 -12 53 -29 63 -38 16 -14 17 83 17 2026 l0 2042 -309 0 -310 0 11 -30
c14 -40 -3 -60 -51 -60 -39 0 -125 41 -152 72 -16 18 -50 18 -975 14 -528 -3
-977 -5 -999 -5 -22 0 -269 2 -549 5 -490 4 -509 4 -522 -14 -19 -28 -68 -34
-114 -16 -22 9 -40 20 -40 25 0 5 -570 9 -1359 9 l-1360 0 -3 -42 c-3 -40 -6
-44 -44 -57 -35 -12 -47 -12 -73 -1 -31 13 -61 54 -61 85 0 13 -98 15 -946 15
l-946 0 6 -72 c21 -252 21 -250 -11 -280 -15 -14 -50 -34 -78 -43 -27 -9 -69
-27 -92 -41 -36 -21 -49 -23 -105 -18 -63 6 -128 37 -128 60 0 10 -21 24 -35
24 -1 0 -5 -27 -9 -59 -6 -50 -12 -64 -37 -85 -51 -43 -97 -30 -117 34 -6 19
-16 82 -21 139 -11 113 -26 145 -59 125 -9 -6 -25 -25 -34 -43 -14 -28 -16
-54 -11 -175 l6 -142 -32 -27 c-35 -29 -66 -34 -92 -14 -36 28 -41 53 -54 297
-7 108 -6 117 15 142 12 16 71 52 135 84 104 51 118 55 157 49 73 -13 128 -94
128 -189 0 -27 19 -76 30 -76 10 0 28 42 35 83 5 23 2 45 -9 65 -21 41 -20 80
4 120 11 18 20 35 20 37 0 3 -133 5 -295 5 -272 0 -296 -1 -302 -17 -4 -10
-24 -40 -45 -66 -20 -26 -41 -63 -47 -81 -14 -52 11 -211 41 -268 17 -31 28
-70 33 -122 9 -98 1 -132 -35 -151 -39 -20 -54 -19 -86 8 -26 23 -28 28 -28
123 0 64 5 117 16 150 14 45 16 159 2 173 -2 2 -18 1 -36 -3 -21 -4 -55 -27
-91 -61 -117 -110 -241 -194 -442 -300 -127 -66 -138 -75 -177 -134 -24 -39
-28 -54 -28 -120 0 -42 7 -105 15 -141 26 -119 53 -274 70 -393 17 -128 27
-159 65 -198 14 -14 38 -51 53 -82 73 -143 195 -188 295 -108 46 37 113 61
170 61 52 0 163 -29 264 -70 77 -30 104 -35 146 -24 17 5 22 13 22 41 0 19 8
47 18 61 9 15 22 36 28 47 9 17 22 20 75 20 l64 0 0 -46 c0 -29 6 -51 17 -62
12 -12 15 -27 11 -56 -4 -30 0 -45 18 -70 12 -17 30 -31 39 -31 9 0 37 22 64
49 59 60 58 87 -4 97 -31 5 -44 14 -65 45 -23 36 -24 41 -11 71 31 75 100 101
154 61 20 -16 26 -28 25 -51 -2 -25 1 -30 25 -35 35 -7 56 6 72 42 7 17 33 45
59 62 51 34 96 36 145 4 25 -16 26 -22 26 -99 0 -85 -12 -118 -63 -171 -42
-43 -138 -37 -165 12 -10 17 -12 17 -38 -7 -14 -14 -32 -39 -39 -55 -8 -17
-23 -39 -34 -49 -12 -11 -21 -29 -21 -42 0 -19 12 -26 82 -50 113 -37 142 -56
230 -147 70 -73 76 -81 67 -106 -14 -41 -54 -78 -117 -110 -131 -66 -352 -109
-505 -98 -267 19 -605 130 -762 250 -129 98 -278 262 -324 357 -18 36 -39 79
-48 95 -8 17 -27 52 -41 80 -14 27 -46 81 -72 120 -61 92 -109 274 -117 440
-3 78 -11 125 -25 161 -18 45 -19 56 -8 100 6 27 18 83 25 124 23 135 154 577
179 603 6 7 22 32 35 57 13 25 35 60 48 78 l24 32 -1015 0 -1016 0 0 -700z
m9783 620 c39 -44 38 -94 -4 -119 -20 -12 -27 -21 -19 -26 6 -4 9 -14 6 -22
-3 -8 -1 -11 4 -8 6 3 10 0 10 -7 0 -45 -77 -53 -109 -12 -12 15 -21 31 -21
37 0 6 -7 18 -16 28 -10 11 -14 25 -10 36 6 15 9 15 17 3 11 -15 9 0 -7 64 -4
17 1 31 16 46 31 31 94 21 133 -20z m341 21 c17 -11 38 -32 47 -48 46 -79 27
-118 -54 -110 -62 6 -98 32 -119 89 -15 41 -15 48 -2 67 20 27 85 28 128 2z
m-4043 -90 c37 -38 41 -97 7 -128 -29 -26 -68 -46 -75 -39 -3 3 -13 1 -23 -4
-38 -20 -150 39 -150 79 0 19 23 43 85 90 56 42 115 42 156 2z m-803 -13 c7
-7 12 -24 12 -39 0 -32 -40 -69 -74 -69 -26 0 -62 24 -77 52 -18 33 23 67 82
67 25 1 50 -4 57 -11z m5717 -68 c8 -7 15 -23 15 -37 0 -21 -3 -23 -22 -17
-13 4 -30 8 -39 8 -9 0 -15 6 -12 12 3 8 -2 11 -15 7 -20 -5 -39 22 -22 32 6
4 10 1 10 -4 0 -6 5 -11 10 -11 6 0 10 6 10 14 0 17 43 15 65 -4z m-136 -6
c24 -17 51 -70 51 -102 0 -24 -42 -43 -79 -36 -62 13 -114 107 -79 142 17 17
80 15 107 -4z m1164 -26 c12 -15 17 -34 15 -62 -3 -35 -7 -42 -28 -45 -62 -8
-125 63 -101 116 11 23 15 25 54 19 25 -4 49 -15 60 -28z m-7426 -136 c50 -76
66 -171 69 -422 2 -118 7 -233 13 -254 9 -35 6 -46 -26 -110 -20 -39 -53 -94
-74 -122 -21 -27 -46 -68 -55 -90 -19 -47 -70 -129 -101 -162 -13 -14 -23 -29
-23 -34 0 -13 -52 -86 -90 -127 -17 -18 -41 -59 -52 -90 -11 -31 -24 -60 -28
-66 -4 -5 -13 -26 -19 -46 -17 -52 -72 -133 -158 -232 -87 -100 -111 -116
-167 -110 -44 5 -66 22 -66 51 0 18 93 142 113 150 4 2 7 8 7 12 0 5 21 39 46
76 26 37 64 102 86 143 22 42 50 85 62 96 12 11 32 47 44 80 13 33 40 82 61
110 21 28 46 65 55 83 27 52 84 110 121 122 54 18 89 68 120 166 14 49 31 99
36 112 15 38 10 212 -11 379 -29 234 -29 333 -2 333 4 0 21 -21 39 -48z m1927
13 c15 -11 16 -15 5 -19 -45 -14 -61 -13 -82 5 -20 19 -20 20 -2 15 11 -3 27
-1 35 4 19 12 21 12 44 -5z m-2296 -78 c19 -17 22 -31 22 -91 1 -39 5 -105 11
-146 21 -161 22 -171 9 -195 -10 -18 -24 -26 -59 -31 -25 -3 -79 -21 -118 -40
-77 -36 -149 -45 -196 -23 -39 18 -64 83 -76 199 -6 58 -14 126 -16 152 -6 52
9 95 37 103 42 14 80 8 104 -16 22 -22 25 -37 33 -140 10 -130 20 -159 56
-159 14 0 25 4 25 8 0 5 10 19 22 31 21 23 21 27 10 159 -11 145 -8 168 32
199 30 24 70 20 104 -10z m-445 -14 c47 -39 48 -56 5 -73 -119 -44 -133 -61
-78 -92 43 -25 58 -69 71 -211 14 -152 8 -192 -32 -216 -62 -38 -112 3 -122
99 -3 30 -9 84 -13 119 -4 42 -13 70 -25 82 -23 23 -31 24 -59 1 -23 -18 -22
-7 -17 -310 1 -47 -32 -86 -75 -90 -28 -2 -40 3 -67 30 l-33 34 -35 -33 c-31
-30 -40 -33 -93 -33 l-59 0 -26 -45 c-15 -24 -40 -55 -55 -69 -77 -64 -192
-92 -262 -62 -34 15 -38 20 -38 54 0 64 28 82 125 82 l66 0 -3 28 c-3 25 -6
27 -48 25 -84 -4 -125 6 -158 39 -27 25 -32 38 -32 75 0 89 63 164 168 201 83
29 145 21 195 -26 15 -14 27 -30 27 -34 0 -14 -73 -78 -89 -78 -25 0 6 -25 69
-55 l61 -29 43 23 c30 17 51 22 69 17 15 -3 38 -9 51 -12 23 -6 24 -4 28 63 5
77 -7 120 -29 102 -7 -6 -13 -17 -13 -24 0 -26 -52 -65 -86 -65 -47 0 -88 37
-79 72 15 58 60 76 160 66 26 -3 32 2 52 43 12 26 41 62 64 80 93 75 99 83 94
131 -6 46 2 62 46 90 47 30 197 31 232 1z m5890 7 c61 -48 89 -139 52 -166
-31 -23 -80 -17 -116 13 -58 49 -83 140 -45 165 22 15 83 8 109 -12z m1794
-36 c41 -31 63 -72 63 -118 0 -55 -57 -74 -121 -40 -51 26 -89 140 -57 172 21
21 79 14 115 -14z m-3186 -36 c24 -18 64 -42 89 -55 57 -28 78 -69 59 -114
-30 -74 -101 -76 -174 -4 -25 24 -54 47 -65 50 -24 8 -62 69 -62 101 0 64 80
75 153 22z m-7297 12 c46 -10 65 -27 71 -62 6 -32 -32 -73 -77 -82 -36 -7 -49
0 -28 15 15 11 7 9 -32 -6 -18 -6 -67 35 -50 42 15 6 16 45 1 60 -8 8 -4 15
12 27 26 18 47 19 103 6z m643 -68 c40 -50 21 -119 -42 -149 -63 -30 -146 21
-131 80 8 35 52 85 79 90 34 7 81 -3 94 -21z m10862 -117 c56 -65 36 -147 -33
-129 -50 12 -93 93 -75 142 6 17 16 22 43 22 26 0 41 -8 65 -35z m-11124 -61
c13 -5 14 -9 4 -15 -17 -10 50 -22 96 -17 37 4 43 0 23 -20 -9 -9 -9 -12 3
-12 24 -1 -34 -29 -61 -30 -36 0 -71 11 -64 21 2 5 -6 11 -20 15 -23 5 -41 38
-30 56 6 10 26 10 49 2z m9353 -40 c46 -32 70 -125 36 -138 -72 -28 -154 56
-129 133 8 26 59 29 93 5z m-8094 -29 c21 -16 31 -68 41 -210 4 -44 11 -113
16 -153 5 -40 9 -102 9 -136 0 -83 -19 -103 -135 -146 -139 -50 -220 -53 -249
-7 -22 33 -44 130 -52 232 -12 148 -11 154 22 180 63 52 124 3 124 -99 0 -49
23 -160 38 -183 14 -23 46 -30 68 -15 30 20 32 48 13 247 -23 254 -23 238 7
274 29 34 66 40 98 16z m6512 -13 c50 -40 73 -122 44 -157 -19 -23 -91 -20
-124 6 -50 39 -74 127 -44 157 18 18 99 14 124 -6z m962 -65 c17 -14 52 -82
52 -101 0 -88 -114 -106 -167 -27 -37 54 -23 126 27 144 19 7 71 -2 88 -16z
m1946 -28 c55 -43 72 -122 38 -167 -17 -22 -22 -23 -60 -13 -46 13 -69 32 -83
68 -12 32 -11 90 1 114 14 26 69 25 104 -2z m-10655 -95 c31 -40 27 -80 -13
-120 -28 -28 -41 -34 -78 -34 -66 0 -98 44 -77 107 23 70 127 99 168 47z
m9473 3 c7 -7 32 -18 56 -25 23 -7 57 -26 76 -42 26 -23 43 -30 75 -30 66 0
119 -27 141 -71 26 -49 26 -86 1 -94 -11 -3 -22 -12 -25 -20 -11 -30 -127 -6
-172 36 -17 16 -29 18 -62 13 -32 -5 -48 -2 -77 16 -20 12 -37 21 -38 19 -1
-2 -7 -13 -13 -24 -17 -31 -65 -31 -101 -1 -58 49 -69 129 -19 142 13 3 33 19
45 35 12 16 26 29 32 29 6 0 17 7 25 15 19 18 38 19 56 2z m-4245 -38 c27 -16
28 -110 2 -138 -24 -26 -31 -26 -54 -1 -23 26 -35 25 -28 -1 5 -18 3 -20 -13
-11 -10 5 -24 8 -29 6 -6 -3 -18 9 -28 25 -17 28 -16 29 8 29 14 0 28 -4 31
-9 3 -5 10 -9 16 -9 6 0 -6 18 -26 40 -20 22 -36 46 -36 54 0 33 112 43 157
15z m5317 5 c9 -24 7 -28 -9 -14 -17 14 -20 30 -6 30 5 0 12 -7 15 -16z
m-2579 -56 c32 -25 64 -91 65 -130 0 -59 -85 -78 -141 -31 -52 44 -78 140 -47
171 20 20 92 15 123 -10z m-8430 -303 c19 -18 25 -35 25 -67 -1 -71 -44 -108
-125 -108 -38 0 -52 5 -76 29 -33 33 -36 56 -13 104 22 45 59 66 117 67 38 0
53 -5 72 -25z m-440 -231 c20 -8 45 -56 45 -88 0 -14 -7 -44 -16 -66 -39 -98
-156 -84 -179 21 -17 74 80 160 150 133z m7418 -213 c40 -45 51 -72 43 -107
-5 -18 -12 -23 -29 -20 -12 3 -27 5 -33 5 -6 1 -22 17 -35 36 -13 19 -30 35
-36 35 -7 0 -20 14 -29 31 -15 30 -15 31 1 25 14 -5 16 -2 12 14 -4 17 0 20
33 20 31 0 44 -7 73 -39z m-6986 -338 c26 -34 27 -84 3 -130 -26 -49 -59 -73
-109 -80 -73 -10 -119 64 -88 139 15 36 66 82 102 91 32 8 79 -2 92 -20z
m10957 -28 c47 -23 141 -115 156 -154 12 -29 11 -37 -5 -67 -10 -19 -22 -34
-26 -34 -4 0 -14 -3 -22 -6 -9 -3 -30 9 -53 30 -21 20 -44 36 -50 36 -23 0
-72 68 -84 118 -20 84 11 112 84 77z m-10550 -177 c22 -31 20 -90 -5 -143 -21
-44 -33 -52 -107 -68 -30 -7 -88 17 -101 42 -15 27 7 91 45 133 42 47 61 57
111 58 32 0 45 -5 57 -22z m10837 -242 c33 -54 20 -96 -28 -96 -29 0 -70 42
-78 81 -9 40 -1 48 46 47 35 0 44 -5 60 -32z m-10446 -36 c16 -6 32 -24 41
-46 44 -105 -95 -216 -167 -133 -41 47 -11 156 49 178 36 13 46 13 77 1z
m7130 -30 c30 -11 55 -63 55 -114 0 -41 -20 -56 -75 -56 -71 0 -129 98 -91
155 18 27 63 33 111 15z m-7815 -90 c36 -36 21 -103 -30 -133 -35 -21 -59 -21
-88 -1 -43 30 -18 128 36 140 15 3 32 7 37 9 20 7 25 5 45 -15z m11178 -26
c30 -21 52 -66 52 -108 0 -30 -4 -37 -25 -42 -31 -8 -81 12 -90 34 -4 12 -8
13 -13 5 -4 -7 -9 15 -9 49 -1 34 0 65 3 70 9 13 58 9 82 -8z m-10367 -147
c48 -36 51 -102 9 -151 -53 -60 -143 -58 -175 4 -26 49 1 131 49 150 31 13 99
11 117 -3z m1508 -136 c23 -23 36 -79 26 -111 -9 -28 -62 -60 -101 -60 -38 0
-79 31 -88 64 -8 34 21 106 48 116 39 16 95 11 115 -9z m511 -79 c18 -14 24
-32 28 -75 4 -52 6 -56 33 -62 45 -10 69 -49 69 -112 0 -49 -4 -59 -34 -89
-26 -26 -42 -34 -69 -34 -71 0 -131 85 -108 151 12 36 7 49 -19 49 -10 0 -22
5 -25 11 -4 6 -21 -4 -41 -25 -29 -30 -42 -36 -75 -36 -51 0 -75 13 -94 50
-40 77 37 163 131 145 30 -5 38 -2 55 19 17 22 29 26 74 26 36 0 60 -6 75 -18z
m-2845 -38 c21 -8 45 -56 45 -89 0 -41 -26 -81 -66 -100 -36 -17 -39 -17 -70
0 -18 9 -38 31 -45 47 -10 25 -9 37 7 76 16 37 27 49 54 59 41 14 53 15 75 7z
m5660 -4 c12 10 16 8 24 -11 6 -18 5 -26 -6 -33 -23 -13 -63 10 -63 35 0 18 2
19 15 9 12 -10 18 -10 30 0z m-6320 -23 c41 -64 18 -159 -48 -190 -50 -24 -74
-21 -108 12 -45 46 -39 121 16 175 21 21 35 26 75 26 41 0 52 -4 65 -23z
m2719 -109 c26 -37 20 -76 -18 -114 -92 -92 -210 13 -120 107 23 24 36 29 75
29 38 0 51 -5 63 -22z m2476 -23 c0 -8 6 -12 13 -10 6 3 24 -14 38 -37 37 -59
43 -83 24 -98 -8 -7 -15 -9 -15 -4 0 9 -59 16 -147 18 -38 0 -44 4 -53 30 -14
39 -13 66 3 66 7 0 20 9 30 20 14 17 21 18 44 9 23 -8 30 -7 38 5 12 20 25 21
25 1z m3785 -55 c32 -30 59 -102 51 -134 -10 -39 -39 -50 -99 -35 -63 14 -73
21 -99 72 -22 43 -20 103 4 119 25 17 116 3 143 -22z m-7841 -42 c35 -49 5
-147 -50 -168 -40 -16 -60 -12 -93 16 -35 30 -41 75 -16 124 20 39 41 49 97
50 37 0 50 -5 62 -22z m4524 -453 c15 -4 30 -22 42 -48 10 -23 31 -55 47 -72
31 -33 63 -106 63 -147 0 -23 41 -87 63 -96 4 -2 7 -21 7 -42 0 -28 7 -44 25
-61 14 -13 33 -36 41 -51 8 -16 21 -28 28 -28 19 0 32 -19 41 -57 5 -25 3 -33
-8 -33 -7 0 -21 -8 -31 -19 -14 -15 -27 -18 -86 -13 -75 5 -113 -5 -166 -45
-31 -23 -84 -31 -84 -13 0 6 -6 10 -12 10 -7 0 -25 6 -40 14 -15 8 -28 10 -30
5 -2 -5 -16 -4 -34 3 -27 10 -34 9 -47 -4 -19 -19 -92 -22 -105 -5 -33 41 -10
111 33 101 31 -8 48 57 29 111 -7 22 -14 48 -14 57 0 10 -10 20 -24 24 -20 5
-24 12 -24 45 -1 27 3 39 14 39 17 0 18 12 2 28 -9 9 -7 12 9 12 12 0 25 5 28
10 3 6 19 10 35 10 29 0 80 47 80 74 0 7 7 26 15 42 8 17 17 57 20 89 3 33 11
63 18 67 12 7 17 7 65 -7z m-5495 -95 c50 -39 48 -136 -4 -194 -35 -40 -71
-52 -111 -35 -58 24 -73 97 -36 175 32 70 100 94 151 54z m2965 -109 c4 -26
-12 -41 -44 -41 -22 0 -34 17 -34 49 0 14 8 18 38 17 31 -2 38 -6 40 -25z
m1542 -34 c21 -9 49 -28 63 -42 21 -24 35 -28 128 -37 113 -11 394 -12 411 -2
24 15 25 -22 2 -67 -22 -44 -49 -67 -96 -85 -10 -3 -18 -10 -18 -15 0 -5 -6
-9 -14 -9 -19 0 -53 -44 -61 -80 -6 -28 -25 -43 -55 -45 -8 0 -14 -6 -12 -13
1 -7 -9 -17 -22 -22 -13 -5 -26 -14 -28 -21 -5 -14 -48 23 -48 41 0 6 -18 10
-40 10 -30 0 -40 4 -40 16 0 8 -4 13 -10 9 -5 -3 -8 -11 -6 -18 1 -7 1 -9 -1
-4 -3 4 -8 5 -13 2 -4 -3 -8 7 -9 23 0 15 0 37 -1 50 0 13 -6 22 -15 22 -9 0
-16 -10 -16 -22 -1 -19 -2 -20 -6 -4 -3 10 0 23 6 29 13 13 15 37 2 37 -5 0
-11 -13 -14 -30 -4 -16 -11 -30 -17 -30 -6 0 -8 5 -5 11 4 5 2 22 -4 37 -6 15
-13 45 -14 68 -3 25 -17 60 -40 94 -29 44 -34 57 -24 68 10 13 8 14 -11 8 -19
-6 -23 -4 -20 11 2 11 -2 17 -11 15 -12 -3 -12 0 -2 12 8 10 9 16 1 21 -5 3
-10 12 -10 18 0 7 8 0 16 -14 9 -14 34 -33 54 -42z m-1380 47 c26 -6 36 -15
52 -52 36 -80 9 -156 -64 -187 -81 -32 -158 37 -144 128 15 94 64 129 156 111z
m3368 -50 c13 -4 22 -14 22 -25 0 -12 7 -19 19 -19 14 0 18 5 14 20 -4 15 0
20 15 20 13 0 21 -8 24 -25 4 -19 1 -25 -13 -25 -14 0 -19 -7 -19 -30 0 -16
-6 -33 -14 -37 -8 -4 -16 -12 -17 -18 -7 -24 -35 -65 -48 -67 -8 -2 -20 -19
-26 -38 -9 -27 -18 -36 -41 -40 -16 -3 -30 -11 -30 -18 -4 -35 -5 -36 -20 -17
-15 19 -15 19 -8 -9 7 -28 6 -29 -21 -22 -16 4 -33 2 -42 -5 -8 -7 -38 -12
-66 -12 -29 0 -55 -4 -59 -11 -6 -8 -8 -8 -8 2 0 6 -9 12 -20 12 -11 0 -20 7
-20 15 0 7 -8 19 -17 24 -13 7 -14 10 -4 11 12 0 11 3 -1 18 -9 9 -21 33 -27
53 -8 26 -21 41 -41 49 -17 7 -30 16 -30 19 0 9 -88 71 -101 71 -5 0 -2 9 8
19 19 20 13 20 412 48 45 3 87 12 105 23 35 21 42 22 74 14z m-668 -79 c0 -20
-3 -22 -32 -16 -30 6 -33 11 -34 43 l-2 36 34 -20 c23 -13 34 -27 34 -43z
m-637 -2 c-7 -2 -19 -2 -25 0 -7 3 -2 5 12 5 14 0 19 -2 13 -5z m847 -322 c0
-10 7 -21 15 -25 8 -3 12 -12 9 -21 -4 -10 0 -15 15 -15 12 0 22 -3 22 -7 7
-39 5 -53 -9 -53 -12 0 -12 -3 -2 -15 18 -22 10 -26 -54 -29 -31 -1 -59 -5
-62 -9 -7 -7 -34 17 -34 31 0 6 6 12 14 15 8 3 19 23 26 44 27 87 60 134 60
84z m-1140 -1 c0 -5 -2 -10 -4 -10 -3 0 -8 5 -11 10 -3 6 -1 10 4 10 6 0 11
-4 11 -10z m1129 -816 c-6 -8 -9 -24 -5 -37 7 -31 0 -38 -31 -26 -19 7 -31 4
-59 -15 -31 -21 -39 -22 -66 -12 -17 6 -41 21 -55 34 -13 12 -32 22 -41 22
-15 0 -15 1 -1 16 9 8 49 22 89 30 68 14 74 14 83 -1 8 -14 11 -15 18 -4 7 11
10 9 15 -8 4 -13 11 -23 16 -23 5 0 8 6 5 13 -2 6 0 20 5 30 8 15 12 16 24 6
11 -9 11 -15 3 -25z m26 -14 c3 -5 1 -10 -4 -10 -6 0 -11 5 -11 10 0 6 2 10 4
10 3 0 8 -4 11 -10z m-1252 -61 c22 1 28 -3 25 -16 -2 -13 -26 -21 -103 -34
-127 -23 -186 -23 -211 -3 -13 11 -15 17 -7 20 7 3 23 14 35 25 21 18 33 19
128 13 58 -4 118 -6 133 -5z m401 -32 c11 -5 84 -18 163 -28 131 -17 146 -17
168 -3 16 10 43 14 86 13 57 -2 66 -6 97 -36 26 -26 33 -40 30 -65 -3 -33 -9
-36 -85 -39 -39 -1 -103 21 -103 36 0 6 -23 17 -51 23 -43 10 -61 9 -115 -5
-64 -17 -67 -17 -147 5 -45 13 -98 27 -117 32 -50 12 -152 39 -170 46 -13 4
-12 7 3 15 9 6 22 7 29 3 7 -5 8 -3 4 5 -10 15 178 13 208 -2z m-764 -22 c0
-10 -10 -15 -30 -15 -38 0 -39 17 -2 23 15 2 28 5 30 6 1 0 2 -6 2 -14z
m-4620 -125 c0 -45 -16 -101 -32 -111 -40 -25 -79 65 -54 126 8 19 21 35 29
35 8 0 18 8 22 18 6 15 8 14 20 -8 8 -14 14 -41 15 -60z m4407 74 c-3 -3 -12
-4 -19 -1 -8 3 -5 6 6 6 11 1 17 -2 13 -5z m401 -15 c26 -7 53 -16 60 -22 7
-5 22 -11 35 -13 12 -2 45 -10 74 -18 61 -17 162 -21 251 -11 41 5 71 4 85 -3
12 -6 64 -15 116 -20 79 -8 97 -13 115 -33 11 -13 29 -24 39 -25 56 -3 68 -5
62 -13 -3 -5 -1 -12 5 -16 5 -3 10 -1 10 4 0 6 15 11 33 11 17 0 50 5 72 10
64 15 179 -37 180 -82 0 -3 3 -10 8 -14 14 -14 7 -25 -12 -19 -11 3 -26 -1
-36 -11 -13 -14 -27 -15 -78 -9 -34 3 -84 6 -111 5 -31 -1 -52 4 -57 12 -7 10
-14 10 -36 -3 -26 -16 -36 -15 -148 2 -66 11 -138 26 -160 35 -22 9 -71 22
-110 30 -38 7 -97 20 -129 28 -43 10 -103 13 -225 10 -91 -3 -205 -6 -252 -7
-58 -2 -92 -7 -104 -17 -19 -16 -183 -59 -227 -60 -15 0 -30 5 -33 10 -3 6
-13 10 -22 10 -42 0 -56 71 -20 101 25 21 96 26 114 8 9 -9 24 -1 60 30 39 35
53 42 78 38 16 -3 49 -8 71 -12 36 -6 43 -5 48 12 17 53 135 78 244 52z m97
-285 c10 -15 13 -15 27 -1 13 14 18 14 42 -2 14 -10 23 -20 20 -24 -4 -4 1 -9
10 -13 9 -3 16 -12 16 -19 0 -8 8 -16 18 -18 9 -3 132 -5 272 -5 181 1 255 -3
258 -11 2 -6 24 -11 48 -11 24 0 44 -4 44 -10 0 -6 56 -9 144 -7 129 2 146 0
165 -17 14 -13 19 -26 15 -39 -5 -16 -3 -17 14 -8 29 15 32 14 32 -14 0 -14 7
-28 15 -31 8 -4 15 -12 15 -20 0 -8 10 -14 25 -14 17 0 25 -6 25 -17 0 -10 7
-31 15 -47 18 -35 19 -46 2 -46 -14 0 -39 26 -52 55 -8 19 -9 19 -12 -2 -3
-13 -9 -23 -14 -23 -6 0 -8 4 -4 10 9 15 -32 50 -51 43 -9 -3 -49 -7 -88 -7
-64 -1 -72 -3 -81 -23 -12 -29 -16 -29 -48 1 -15 14 -39 31 -54 40 -36 20
-160 60 -238 76 -33 7 -68 17 -77 22 -28 14 -79 21 -148 21 -243 0 -469 -6
-518 -14 -77 -13 -81 -13 -126 -4 -28 6 -37 5 -32 -4 4 -7 0 -11 -12 -11 -10
0 -22 -3 -26 -7 -13 -13 -229 -53 -255 -46 -36 8 -67 45 -74 85 -5 28 -2 36
19 52 22 15 39 18 104 14 76 -4 80 -4 119 28 46 36 67 35 102 -2 l23 -24 41
40 c40 40 44 41 146 54 57 7 108 14 113 15 5 0 14 -6 21 -15z m-1777 -153 c20
-10 45 -28 55 -39 18 -19 17 -21 -7 -68 -50 -99 -60 -123 -52 -131 4 -4 18 4
31 20 13 15 30 27 38 27 8 0 17 9 20 20 3 11 10 20 15 20 6 0 8 -9 5 -20 -3
-11 -9 -20 -13 -20 -4 0 -13 -27 -20 -60 -7 -33 -17 -57 -21 -54 -5 3 -9 -5
-10 -18 -7 -164 -5 -212 9 -281 12 -61 13 -85 4 -109 -6 -16 -8 -36 -5 -44 6
-16 -12 -59 -35 -82 -7 -8 -10 -18 -7 -23 10 -15 -15 -49 -36 -49 -14 0 -26
-13 -40 -46 -26 -57 -89 -134 -111 -134 -4 0 -8 -6 -8 -13 0 -7 -8 -22 -18
-33 -10 -11 -22 -32 -26 -47 -3 -15 -17 -32 -29 -37 -21 -8 -20 -9 6 -9 16 -1
26 -5 23 -10 -3 -4 6 -13 19 -19 40 -18 30 -33 -21 -31 -42 3 -45 5 -41 26 2
12 1 20 -4 18 -13 -9 -33 138 -30 230 1 50 4 120 5 157 1 36 7 72 13 80 6 7
13 43 15 79 3 61 7 68 44 106 22 22 38 45 36 52 -2 6 2 9 10 6 19 -7 33 6 46
44 26 76 0 94 -60 43 -60 -52 -147 -112 -162 -112 -8 0 -23 -16 -35 -35 -11
-19 -24 -35 -29 -35 -18 0 -32 55 -33 125 -1 121 13 197 47 263 8 15 14 33 14
39 0 7 32 49 72 94 51 58 86 88 122 105 65 30 151 32 204 5z m7089 -53 c-3 -8
-6 -5 -6 6 -1 11 2 17 5 13 3 -3 4 -12 1 -19z m-5029 -15 c24 -4 36 -14 48
-39 13 -26 23 -33 52 -37 64 -9 95 -7 108 4 7 6 18 8 24 4 5 -3 13 1 16 9 14
36 24 13 18 -39 -6 -46 -4 -55 9 -55 8 0 18 11 21 25 4 14 14 26 24 26 9 1 30
2 45 3 16 1 32 8 36 15 7 11 15 11 46 0 21 -8 40 -20 42 -26 3 -7 16 -13 29
-13 13 0 47 -11 76 -25 40 -19 68 -25 122 -25 54 -1 76 -5 94 -19 12 -11 22
-24 22 -30 0 -6 14 -17 30 -26 32 -16 38 -30 18 -38 -7 -2 -10 -7 -7 -11 3 -3
15 3 27 14 21 20 22 20 22 1 0 -10 7 -21 15 -25 8 -3 15 -11 15 -19 0 -9 -15
-13 -48 -14 -68 -1 -89 -10 -104 -43 -7 -16 -29 -39 -50 -52 -21 -13 -38 -27
-38 -32 0 -5 -9 -1 -19 8 -13 12 -27 15 -40 11 -14 -4 -23 -1 -27 9 -4 11 -19
16 -45 16 -26 0 -37 4 -34 13 3 7 -13 20 -38 31 -23 10 -60 35 -82 55 -22 21
-51 42 -65 48 -72 32 -119 45 -155 44 -40 -1 -141 24 -161 40 -41 34 -367 49
-422 20 -33 -18 -26 -55 11 -59 31 -4 33 -9 12 -32 -13 -14 -12 -17 7 -29 18
-11 20 -11 15 3 -4 9 -2 16 4 16 5 0 8 -12 7 -27 -3 -28 -2 -28 52 -26 40 2
59 7 70 21 29 35 49 34 93 -3 22 -19 53 -40 69 -47 15 -7 28 -16 28 -19 0 -3
18 -14 40 -24 22 -10 40 -22 40 -27 0 -4 9 -8 19 -8 11 0 26 -7 35 -15 8 -8
19 -15 25 -15 6 0 8 -7 5 -15 -4 -10 0 -15 13 -15 27 0 75 -25 100 -52 12 -14
23 -44 27 -76 6 -49 5 -54 -14 -59 -14 -4 -20 -14 -20 -34 0 -40 29 -39 37 1
3 17 10 33 16 37 6 3 7 1 3 -5 -4 -7 -1 -12 9 -12 32 0 97 -42 117 -76 l21
-35 18 30 c10 17 25 31 34 31 9 0 14 8 12 21 -1 15 7 27 28 39 25 14 30 23 29
52 -1 31 1 34 23 30 12 -2 23 -8 23 -13 0 -5 7 -9 15 -9 8 0 15 -9 15 -19 0
-11 5 -23 11 -26 6 -4 8 -14 5 -22 -13 -32 12 -53 62 -52 26 0 56 4 67 8 11 5
25 4 33 -2 7 -5 15 -7 19 -3 3 3 1 6 -5 6 -7 0 -12 9 -12 20 0 11 -7 20 -16
20 -8 0 -13 4 -10 9 3 5 -1 14 -9 21 -8 7 -15 19 -15 27 0 8 -4 12 -9 8 -14
-8 -20 7 -11 31 6 14 20 23 41 26 28 4 38 0 65 -28 17 -19 36 -34 41 -34 6 0
16 -6 22 -14 12 -15 36 -20 169 -38 56 -8 82 -15 82 -25 0 -7 7 -13 15 -13 9
0 20 -10 24 -22 13 -32 -18 -65 -45 -49 -11 6 -14 11 -9 11 6 0 3 5 -5 10 -13
8 -12 10 3 10 10 0 15 5 12 10 -3 6 -22 10 -41 10 -19 0 -34 -4 -34 -10 0 -5
4 -10 9 -10 13 0 19 -90 6 -91 -5 -1 -16 -1 -22 0 -7 1 -13 -5 -13 -14 0 -8
-4 -15 -10 -15 -5 0 -10 5 -10 10 0 6 -4 10 -10 10 -18 0 -11 -26 13 -47 12
-12 72 -46 133 -77 117 -58 152 -88 254 -215 98 -122 181 -259 297 -491 39
-78 56 -166 48 -245 -4 -38 -8 -137 -9 -220 -1 -82 -6 -161 -10 -174 -5 -15
-4 -26 4 -31 10 -6 10 -15 1 -40 -6 -18 -11 -69 -11 -112 0 -50 -4 -77 -10
-73 -5 3 -10 1 -10 -4 0 -6 4 -11 10 -11 6 0 6 -9 0 -25 -14 -38 -22 -165 -10
-165 6 0 10 -31 10 -75 0 -48 5 -84 14 -98 21 -33 30 -168 15 -214 -21 -66
-79 -176 -125 -238 -24 -33 -52 -76 -63 -95 -104 -194 -123 -218 -148 -184
-12 16 -13 16 -19 0 -3 -9 -4 -58 -1 -109 3 -51 2 -83 -2 -72 -5 13 -11 -10
-16 -70 -8 -104 -10 -115 -26 -175 -31 -118 -192 -423 -267 -506 -9 -10 -36
-44 -59 -74 -48 -63 -191 -204 -243 -240 -19 -14 -44 -32 -54 -42 -11 -10 -24
-18 -29 -18 -5 0 -41 -21 -79 -46 -171 -114 -440 -232 -684 -301 -55 -15 -103
-32 -105 -38 -8 -20 174 -17 263 4 46 11 101 23 123 27 39 7 208 75 290 117
56 28 168 122 191 160 l19 32 3 -55 c3 -43 -2 -64 -20 -97 -12 -24 -26 -43
-30 -43 -5 0 -8 -13 -8 -29 0 -21 -9 -36 -37 -57 -21 -16 -46 -39 -56 -51 -10
-13 -29 -23 -42 -23 -20 0 -25 -7 -31 -35 -3 -20 -4 -39 0 -42 3 -4 6 1 6 9 0
11 17 20 53 28 70 16 108 31 102 41 -3 4 4 6 16 4 15 -3 28 4 42 21 14 18 22
22 27 14 6 -9 14 -6 29 9 11 11 26 21 32 21 5 0 7 5 4 10 -3 6 -1 10 4 10 6 0
11 -4 11 -10 0 -5 5 -10 11 -10 5 0 8 4 4 10 -6 10 48 42 66 38 6 -2 14 3 16
10 3 6 0 12 -6 12 -6 0 -11 5 -11 10 0 6 18 10 40 10 29 0 40 4 40 15 0 21 36
27 108 17 47 -7 65 -6 73 4 7 8 18 10 31 5 12 -4 32 -6 46 -3 19 4 23 10 19
27 -3 19 1 24 25 27 16 3 28 0 29 -6 0 -6 5 0 11 14 11 25 11 25 15 2 3 -12
-5 -33 -16 -48 -12 -15 -21 -31 -21 -36 0 -12 -70 -78 -82 -78 -4 0 -22 -13
-40 -28 -50 -42 -202 -126 -303 -167 -49 -20 -99 -45 -111 -56 -12 -11 -37
-24 -56 -29 -18 -5 -80 -20 -138 -35 -58 -14 -154 -39 -215 -55 -136 -37 -173
-40 -460 -46 -126 -2 -250 -4 -275 -5 -48 -1 -234 14 -395 31 -181 20 -605
123 -755 184 -33 14 -72 34 -88 46 -54 42 -144 135 -153 159 -13 32 4 86 41
132 16 21 30 41 30 46 0 4 -28 26 -62 48 -183 117 -379 310 -507 498 -65 95
-185 390 -226 552 -46 186 -41 427 15 612 22 72 85 209 105 229 11 12 12 20 2
47 -8 21 -12 115 -12 277 0 266 10 362 65 600 76 337 269 734 447 920 19 19
46 60 60 90 28 57 87 154 106 176 40 41 76 93 107 148 49 89 152 179 225 196
66 16 72 31 10 25 -36 -3 -45 -1 -45 12 0 12 -3 13 -13 4 -8 -6 -17 -8 -20 -4
-4 3 -7 1 -7 -5 0 -7 -7 -12 -15 -12 -8 0 -15 4 -15 9 0 5 -12 8 -26 6 -35 -3
-116 29 -129 51 -5 10 -17 26 -25 34 -8 8 -26 35 -39 59 -19 35 -22 48 -12 62
6 10 11 26 11 34 0 8 5 15 10 15 18 0 -7 37 -28 42 -13 4 -25 -5 -41 -27 -21
-32 -23 -32 -64 -22 -23 6 -45 15 -49 20 -3 6 -15 11 -25 12 -36 2 -41 13 -37
80 2 36 8 73 13 83 10 18 11 18 83 20 26 1 53 9 61 17 8 8 17 11 21 8 3 -3 8
2 12 11 12 32 84 9 84 -28 0 -22 37 -20 45 3 3 11 19 21 38 24 17 4 42 9 55
13 13 4 22 2 22 -5 0 -6 -7 -11 -15 -11 -11 0 -15 -12 -15 -49 0 -55 -16 -74
-37 -46 -11 17 -13 17 -13 2 0 -16 -41 -34 -67 -29 -13 3 -15 -7 -17 -79 -1
-45 21 -42 27 4 3 27 4 26 5 -8 0 -22 1 -46 1 -52 1 -8 14 -13 31 -13 17 0 38
-4 48 -9 9 -5 36 -14 60 -21 24 -6 53 -21 64 -32 17 -17 20 -18 15 -4 -6 15
-2 17 30 15 21 -1 57 -1 79 0 l42 1 -15 52 c-14 45 -14 53 -1 62 8 6 17 19 21
29 4 10 17 17 32 17 15 0 24 4 20 10 -7 12 33 49 53 50 7 0 18 -13 23 -30 11
-29 29 -41 29 -19 0 14 41 -11 43 -26 2 -17 45 -34 95 -37 41 -3 47 -6 50 -26
3 -18 8 -23 24 -19 19 5 32 -2 85 -50 33 -29 63 -39 73 -23 4 7 15 10 25 7 9
-4 14 -3 11 2 -6 9 36 31 59 31 7 0 23 12 34 26 15 19 26 24 38 19 10 -4 28
-9 41 -11 13 -1 49 -15 81 -31 56 -28 57 -29 39 -47 -23 -25 -23 -36 2 -36 11
0 20 7 20 15 0 20 57 20 97 0 33 -17 63 -54 63 -80 0 -10 10 -15 33 -16 56 -1
70 -7 104 -45 18 -21 34 -41 34 -46 1 -4 2 -14 3 -20 1 -18 44 -22 62 -8 7 7
14 21 14 31 0 10 7 22 16 27 51 28 -153 151 -371 224 -54 18 -110 45 -140 68
-27 20 -63 42 -80 47 -19 6 -31 17 -33 31 -4 25 -6 26 -32 12 -15 -8 -24 -6
-41 11 -12 12 -29 19 -40 16 -16 -4 -44 3 -151 39 -10 4 -18 10 -18 15 0 5
-18 9 -40 9 -22 0 -40 5 -40 10 0 7 -7 7 -20 0 -12 -6 -30 -8 -40 -5 -12 4
-20 2 -20 -5 0 -6 -5 -8 -10 -5 -8 5 -8 11 0 20 6 7 9 19 8 26 -2 7 7 18 20
24 27 12 28 21 2 28 -13 3 -20 0 -20 -9 0 -8 -5 -14 -11 -14 -6 0 -8 9 -4 20
4 13 1 22 -9 26 -19 7 -20 24 -4 59 8 18 19 25 40 25 15 0 28 -4 28 -8 0 -11
66 -42 90 -42 11 0 37 -9 57 -20 20 -10 40 -17 45 -14 4 3 8 -1 8 -9 0 -13 89
-47 124 -47 10 0 40 -11 67 -25 42 -20 51 -22 55 -10 4 8 12 15 20 15 28 0 14
31 -16 37 -36 7 -60 37 -60 75 0 42 29 52 90 32 40 -13 53 -14 65 -4 8 6 13
17 12 23 -1 8 13 11 41 9 32 -2 42 1 42 13 0 10 10 15 33 14 17 0 68 4 112 9
44 5 87 7 95 5 8 -3 30 -7 48 -10z m977 -58 c0 -10 -6 -20 -12 -22 -8 -3 -13
5 -13 22 0 17 5 25 13 23 6 -3 12 -13 12 -23z m5229 -80 c3 -8 -4 -21 -17 -30
-20 -14 -23 -14 -39 6 -10 12 -18 25 -18 30 0 16 67 10 74 -6z m-5094 -49 c0
-16 -22 -26 -53 -25 -15 0 -17 2 -7 6 8 3 19 12 23 19 10 18 37 18 37 0z
m-1003 -110 c32 -8 94 -22 138 -32 74 -16 84 -22 124 -66 24 -26 50 -48 58
-48 28 0 94 -42 103 -65 12 -33 4 -53 -31 -71 -25 -13 -33 -13 -57 0 -15 8
-34 30 -41 49 -12 30 -20 36 -67 46 -30 7 -56 16 -59 21 -3 5 -50 30 -103 56
-125 61 -167 91 -151 110 14 17 14 17 86 0z m-937 -14 c0 -11 -90 -30 -96 -20
-3 4 -3 11 -1 16 6 9 97 13 97 4z m2244 2 c30 -12 12 -44 -25 -44 -10 0 -12
33 -2 43 8 8 8 8 27 1z m51 -64 c-27 -12 -35 -12 -35 0 0 6 12 10 28 9 24 0
25 -1 7 -9z m5045 -82 c25 -41 27 -120 4 -142 -27 -27 -55 -38 -81 -31 -14 3
-22 2 -19 -4 10 -15 -4 -39 -25 -44 -26 -7 -54 50 -61 128 -3 35 23 43 34 10
4 -12 6 -2 7 28 1 61 25 87 81 87 35 0 43 -5 60 -32z m-5037 -2 c9 -7 17 -18
17 -25 0 -14 17 -15 22 0 5 16 58 -7 58 -26 0 -8 5 -15 10 -15 6 0 10 -7 10
-15 0 -9 9 -15 25 -15 13 0 36 -6 51 -12 22 -10 28 -10 32 0 2 6 10 12 18 12
13 0 16 -4 18 -32 1 -17 21 -38 35 -38 6 0 11 -13 11 -29 0 -23 5 -30 23 -33
15 -2 23 -11 25 -28 2 -14 8 -29 12 -34 15 -15 -17 -36 -54 -36 -29 0 -36 -4
-36 -20 0 -16 7 -20 35 -20 32 0 60 -15 89 -48 6 -7 21 -23 32 -36 33 -34 44
-61 44 -101 0 -28 -5 -38 -20 -42 -25 -7 -28 -64 -5 -83 8 -7 15 -22 15 -34 0
-34 28 -66 58 -66 19 0 23 -3 13 -9 -10 -7 -10 -10 -1 -16 7 -4 16 -2 21 6 6
10 11 6 18 -14 6 -16 18 -27 30 -27 10 0 24 -7 31 -15 11 -13 8 -15 -14 -15
-31 0 -32 -7 -7 -34 17 -18 18 -28 10 -70 -10 -55 -7 -65 16 -46 13 10 19 10
33 -4 23 -20 32 -20 32 -1 0 17 35 21 45 5 3 -5 -1 -10 -10 -10 -9 0 -13 -5
-10 -10 10 -15 -5 -50 -20 -50 -9 0 -12 -6 -8 -15 4 -11 -6 -20 -36 -32 -30
-12 -40 -21 -36 -32 3 -8 0 -34 -6 -57 -11 -36 -18 -43 -43 -47 -42 -6 -56 1
-56 28 0 13 -7 25 -15 29 -8 3 -15 10 -15 17 0 6 7 8 16 5 9 -3 12 -2 9 5 -4
5 -31 21 -61 34 -30 13 -54 29 -54 34 0 6 -7 11 -16 11 -8 0 -12 5 -9 10 4 6
11 8 16 5 5 -4 9 -1 9 5 0 13 -49 60 -62 60 -5 0 -4 9 2 19 14 27 -7 39 -25
15 -12 -17 -15 -17 -28 -4 -7 8 -22 42 -32 75 -10 33 -28 69 -40 81 -22 21
-41 114 -24 114 5 0 9 5 9 10 0 6 -6 10 -12 10 -7 0 -23 18 -36 41 -14 24 -29
39 -37 36 -9 -4 -11 1 -8 14 4 13 0 19 -10 19 -8 0 -17 4 -19 8 -1 4 -22 23
-45 41 -36 29 -41 38 -38 66 4 27 -1 38 -30 64 -19 17 -39 31 -45 31 -5 0 -10
9 -10 21 0 25 -17 59 -30 59 -6 0 -10 -7 -10 -16 0 -9 -5 -14 -12 -11 -50 21
-68 34 -68 50 0 13 9 17 40 17 29 0 40 4 40 15 0 9 7 26 16 40 12 18 13 29 5
43 -8 16 -5 28 15 58 15 22 30 41 34 44 13 9 21 48 10 55 -5 3 -10 10 -10 16
0 13 32 11 53 -5z m-3344 -60 c23 -37 28 -98 8 -114 -18 -15 -77 58 -84 105
-4 22 -2 34 3 30 6 -3 16 -2 24 4 23 14 27 12 49 -25z m-675 -7 c-3 -5 -10 -7
-15 -3 -5 3 -7 10 -3 15 3 5 10 7 15 3 5 -3 7 -10 3 -15z m4 -83 c3 -20 0 -27
-10 -24 -7 3 -14 17 -16 32 -3 20 0 27 10 24 7 -3 14 -17 16 -32z m4422 -30
c0 -13 -20 -26 -41 -26 -5 0 -9 9 -9 20 0 15 7 20 25 20 15 0 25 -6 25 -14z
m-4429 -69 c-8 -8 -11 -5 -11 9 0 27 14 41 18 19 2 -9 -1 -22 -7 -28z m8187
-13 c44 -30 74 -63 68 -73 -12 -18 -77 -24 -133 -12 -34 8 -58 9 -66 3 -17
-13 -183 -33 -206 -24 -17 6 -18 10 -7 25 9 11 33 19 75 23 33 4 61 10 61 14
0 6 29 15 77 22 5 1 26 9 48 19 49 23 55 23 83 3z m-7341 -84 c89 -32 143 -59
143 -72 0 -4 -6 -8 -12 -9 -7 0 -24 -3 -38 -5 -51 -10 -129 16 -171 56 -37 35
-44 60 -18 60 6 0 49 -14 96 -30z m-2584 -11 c48 -37 59 -139 22 -195 -8 -13
-29 -31 -45 -39 -26 -13 -34 -14 -64 -1 -18 8 -46 30 -61 50 -24 32 -27 42
-23 93 4 48 10 61 37 85 39 35 95 38 134 7z m10390 -113 c3 -7 -1 -31 -8 -52
-8 -23 -11 -58 -8 -86 6 -51 4 -52 -67 -61 -14 -1 -29 -5 -35 -9 -5 -3 -43
-11 -82 -18 -40 -6 -73 -15 -73 -19 0 -14 -107 -40 -189 -46 -46 -3 -92 -10
-102 -15 -10 -6 -38 -10 -63 -10 l-46 0 0 40 c0 22 5 40 10 40 6 0 10 5 10 10
0 15 61 73 90 86 74 33 102 44 111 44 6 0 25 6 42 13 78 33 135 50 282 80 91
19 122 20 128 3z m584 -98 c7 -5 15 -29 19 -53 5 -35 2 -50 -15 -73 -21 -31
-51 -44 -70 -33 -17 11 -41 78 -41 115 0 59 7 67 54 60 22 -4 46 -11 53 -16z
m-4409 -126 c2 -7 -8 -12 -25 -13 -20 0 -23 -2 -11 -7 11 -5 14 -12 9 -21 -7
-10 -13 -11 -30 -2 -22 12 -29 31 -11 31 6 0 9 3 9 8 -3 15 2 18 28 16 15 0
29 -6 31 -12z m4286 -43 c-7 -11 -34 -12 -34 -1 0 14 11 21 26 15 8 -3 11 -9
8 -14z m-10222 -40 c26 -14 48 -68 48 -120 0 -33 -6 -47 -34 -75 -22 -22 -44
-34 -62 -34 -15 0 -46 -8 -68 -19 -61 -28 -86 -31 -123 -16 -83 35 -102 98
-59 191 26 55 55 70 115 58 19 -4 38 0 52 10 27 18 100 21 131 5z m1398 -43
c-14 -14 -22 -2 -14 18 5 14 9 15 15 4 4 -7 4 -17 -1 -22z m4430 -53 c0 -36 5
-38 83 -35 27 1 37 -2 34 -11 -2 -6 -10 -12 -18 -13 -29 -2 -69 -16 -69 -25 0
-12 -37 -11 -45 1 -3 6 0 10 8 10 10 0 13 7 10 20 -3 11 -9 20 -14 20 -5 0 -9
18 -9 40 0 22 -5 40 -11 40 -5 0 -7 5 -4 11 11 17 34 -23 35 -58z m36 10 c-11
-11 -19 6 -11 24 8 17 8 17 12 0 3 -10 2 -21 -1 -24z m-5607 -153 c91 -17 176
-33 189 -36 34 -7 28 -53 -22 -163 -53 -117 -86 -220 -86 -272 0 -22 9 -63 19
-92 76 -203 135 -347 171 -418 23 -45 47 -111 54 -148 30 -152 78 -233 209
-351 101 -91 180 -150 255 -190 56 -30 65 -59 27 -84 -72 -47 -167 -142 -219
-218 -31 -46 -78 -101 -106 -123 -28 -23 -59 -59 -71 -85 -12 -25 -38 -57 -58
-71 -21 -15 -50 -51 -69 -88 -39 -72 -37 -94 10 -166 l30 -46 -17 -132 c-10
-79 -29 -166 -46 -217 -43 -125 -42 -132 40 -247 11 -16 39 -82 62 -148 45
-127 110 -260 161 -332 50 -69 163 -154 299 -226 141 -75 223 -105 319 -117
79 -10 100 -31 100 -96 0 -60 -70 -198 -108 -213 -39 -15 -140 -32 -193 -31
-31 1 -53 -5 -71 -20 -14 -11 -30 -20 -35 -20 -4 0 -19 -9 -33 -20 -28 -22
-83 -25 -165 -9 -106 20 -125 21 -137 11 -29 -23 -248 -74 -264 -61 -7 5 -38
16 -70 25 -52 13 -69 25 -144 98 -68 67 -96 87 -140 101 -38 13 -67 31 -95 61
-63 67 -135 72 -106 7 7 -16 13 -30 13 -33 0 -3 4 -13 9 -22 7 -12 4 -20 -7
-26 -33 -19 -110 13 -139 58 -11 16 -49 49 -84 71 -43 28 -59 44 -50 49 7 5
23 1 37 -8 19 -12 28 -13 43 -4 10 7 28 12 39 12 50 0 24 64 -38 94 -18 9 -38
16 -45 16 -12 0 -47 59 -47 79 0 5 -29 57 -64 116 -76 126 -91 188 -76 300 13
86 26 129 57 177 12 21 23 40 23 44 0 13 90 144 100 144 5 0 10 6 10 14 0 8 9
17 20 21 10 3 31 20 44 36 24 29 25 32 11 59 -17 33 -19 66 -5 75 6 3 10 -1
10 -9 0 -22 13 -20 35 4 12 13 14 20 5 20 -10 0 -10 3 1 16 7 9 14 23 15 31 2
9 7 20 13 26 8 8 11 2 11 -21 0 -31 13 -42 25 -22 3 6 17 10 31 10 21 0 24 4
24 40 0 44 14 53 26 18 l7 -23 8 22 c12 32 0 65 -21 58 -13 -4 -19 1 -24 20
-4 14 -13 25 -21 25 -9 0 -15 9 -15 21 0 12 -8 23 -20 26 -11 3 -20 12 -20 19
0 8 -10 14 -25 14 -14 0 -25 3 -25 7 0 12 33 43 45 43 7 0 18 7 25 15 9 11 9
15 1 15 -7 0 -9 5 -6 10 3 6 1 10 -4 10 -6 0 -11 -5 -11 -10 0 -32 -96 18
-111 57 -11 29 -38 41 -50 22 -6 -9 -9 0 -9 29 0 30 -4 42 -15 42 -9 0 -12 6
-9 15 10 25 34 17 34 -11 0 -19 4 -25 18 -22 9 2 18 9 18 16 1 6 2 17 3 23 1
6 28 9 71 8 72 -2 112 13 70 26 -12 4 -19 12 -16 20 3 8 -2 11 -14 8 -10 -3
-32 3 -50 12 -22 11 -63 18 -119 20 -124 4 -218 26 -204 48 4 6 0 8 -11 4 -13
-5 -22 3 -37 38 -11 24 -26 48 -34 53 -8 4 -16 20 -17 35 -1 15 -6 27 -10 27
-8 0 -51 130 -73 225 -22 95 -19 159 14 287 16 62 31 129 35 148 3 19 20 64
36 99 17 35 56 129 86 210 31 80 89 214 129 297 40 83 83 175 96 205 13 30 59
108 104 174 111 168 145 222 145 234 0 6 3 11 8 11 4 0 18 27 32 61 21 51 52
86 79 89 3 0 79 -14 170 -30z m8916 -40 c10 -23 23 -44 29 -48 24 -15 37 -52
26 -72 -6 -11 -14 -20 -18 -20 -5 0 -17 -8 -28 -19 -11 -10 -37 -24 -57 -30
-20 -7 -41 -19 -46 -28 -6 -11 -10 -12 -15 -4 -4 6 -2 11 5 11 7 0 9 10 6 26
-3 17 2 33 13 44 40 40 52 70 51 125 0 30 3 55 8 55 4 0 16 -18 26 -40z
m-3685 -7 c0 -20 -3 -24 -11 -16 -7 7 -9 19 -6 27 10 24 17 19 17 -11z m20
-235 c-1 -70 -1 -72 -14 -42 -16 36 -66 207 -66 225 0 7 18 -15 40 -49 38 -57
40 -66 40 -134z m4745 101 c0 -8 -10 -15 -22 -17 -25 -4 -33 22 -10 31 18 8
32 2 32 -14z m358 -767 c26 -45 36 -192 14 -210 -19 -16 -62 -1 -77 29 -18 32
-25 171 -11 198 17 31 51 24 74 -17z m-4868 -555 c76 -49 84 -73 91 -289 7
-198 5 -210 -66 -608 -31 -171 -54 -236 -95 -270 -8 -7 -15 -19 -15 -27 0 -8
-4 -12 -9 -9 -5 3 -14 -1 -21 -9 -15 -18 -36 -19 -47 -3 -11 20 -25 106 -28
183 -1 39 -5 118 -8 178 -5 80 -3 116 7 140 16 37 31 114 46 242 6 50 17 131
25 180 20 125 35 255 35 293 0 42 20 42 85 -1z m-5935 -1077 c0 -5 -4 -10 -10
-10 -5 0 -10 5 -10 10 0 6 5 10 10 10 6 0 10 -4 10 -10z m4800 -1090 c0 -5 -7
-10 -15 -10 -8 0 -15 5 -15 10 0 6 7 10 15 10 8 0 15 -4 15 -10z m0 -36 c0 -8
-4 -12 -10 -9 -5 3 -10 10 -10 16 0 5 5 9 10 9 6 0 10 -7 10 -16z m-80 -14 c0
-5 -4 -10 -10 -10 -5 0 -10 5 -10 10 0 6 5 10 10 10 6 0 10 -4 10 -10z m-26
-35 c4 -10 -1 -15 -14 -15 -20 0 -26 11 -13 23 10 11 20 8 27 -8z m-4842 -213
c-17 -5 -15 -22 3 -22 8 0 15 -4 15 -9 0 -15 -29 -33 -41 -26 -8 6 -7 10 2 16
10 6 8 9 -8 9 -27 0 -29 7 -7 31 9 10 23 15 32 11 10 -3 12 -7 4 -10z m7338
-490 c0 -27 -25 -5 -28 24 -3 28 -3 28 12 9 8 -11 16 -26 16 -33z m-95 -25 c0
-26 -20 -25 -23 2 -3 16 1 22 10 19 7 -3 13 -12 13 -21z"/>
<path d="M2913 11593 c-27 -10 -13 -33 21 -33 43 0 67 25 34 34 -26 7 -38 7
-55 -1z"/>
<path d="M5138 8283 c6 -2 18 -2 25 0 6 3 1 5 -13 5 -14 0 -19 -2 -12 -5z"/>
<path d="M5150 8260 c0 -5 10 -10 23 -10 18 0 19 2 7 10 -19 13 -30 13 -30 0z"/>
<path d="M5345 8020 c-3 -5 -1 -10 4 -10 6 0 11 5 11 10 0 6 -2 10 -4 10 -3 0
-8 -4 -11 -10z"/>
<path d="M4683 6514 c-18 -8 -33 -16 -33 -18 0 -2 20 -4 45 -4 45 0 55 7 33
25 -9 7 -24 6 -45 -3z"/>
<path d="M3301 6374 c-21 -27 -28 -78 -12 -88 20 -13 66 70 55 99 -9 22 -20
19 -43 -11z"/>
<path d="M6375 6180 c-3 -5 -2 -10 4 -10 5 0 13 5 16 10 3 6 2 10 -4 10 -5 0
-13 -4 -16 -10z"/>
<path d="M4363 5963 c-45 -4 -49 -8 -34 -32 11 -16 97 -25 106 -11 6 10 -16
51 -25 48 -3 -1 -24 -3 -47 -5z"/>
<path d="M5148 5763 c6 -2 18 -2 25 0 6 3 1 5 -13 5 -14 0 -19 -2 -12 -5z"/>
<path d="M6471 5066 c-22 -26 2 -41 88 -54 41 -7 96 -24 122 -38 53 -30 142
-109 185 -168 32 -44 44 -34 18 16 -29 56 -64 96 -129 148 -110 88 -252 135
-284 96z"/>
<path d="M3784 4992 c-56 -37 -192 -179 -210 -219 -33 -77 -10 -70 57 16 30
38 82 88 117 112 102 71 116 84 109 102 -9 24 -26 21 -73 -11z"/>
<path d="M3643 4366 c-38 -35 -77 -79 -87 -97 -22 -37 -4 -30 32 13 23 28 106
88 121 88 13 0 52 46 44 53 -17 18 -48 2 -110 -57z"/>
<path d="M6504 4366 c-3 -9 0 -24 7 -33 17 -19 70 -43 99 -43 45 0 238 -177
277 -255 20 -40 36 -85 48 -139 3 -17 10 -25 15 -20 12 12 -13 152 -35 195
-34 66 -119 171 -169 209 -97 74 -229 120 -242 86z"/>
<path d="M3808 2928 c12 -12 24 -19 28 -15 10 10 -16 37 -34 37 -13 0 -12 -4
6 -22z"/>
<path d="M4095 2680 c-4 -6 -2 -17 4 -23 15 -15 25 -2 13 19 -7 12 -11 13 -17
4z"/>
<path d="M4190 2440 c0 -5 5 -10 10 -10 6 0 10 5 10 10 0 6 -4 10 -10 10 -5 0
-10 -4 -10 -10z"/>
<path d="M4680 2080 c-14 -4 -41 -5 -62 -3 -61 9 -209 -70 -290 -154 -68 -70
-84 -172 -38 -248 10 -16 25 -66 35 -110 10 -44 26 -96 36 -116 42 -83 210
-199 311 -215 24 -4 70 -22 103 -40 33 -18 80 -36 105 -39 25 -4 59 -13 75
-20 38 -17 80 -20 128 -10 49 10 47 23 -5 28 -25 2 -8 4 38 5 45 1 97 9 117
17 19 8 37 12 39 9 3 -2 13 11 22 30 32 67 29 307 -3 257 -7 -11 -9 -11 -13 0
-4 11 -9 10 -23 -5 -14 -13 -20 -15 -23 -6 -3 7 5 22 17 34 19 18 23 19 31 6
8 -12 10 -9 9 10 -1 14 3 37 9 53 17 42 4 144 -25 195 -14 23 -64 82 -112 131
-71 73 -101 96 -171 130 -118 58 -243 82 -310 61z m30 -377 c0 -15 -5 -23 -12
-21 -19 7 -32 34 -24 53 9 24 36 1 36 -32z m333 22 c4 -8 2 -17 -2 -20 -5 -2
-11 4 -14 15 -6 23 8 27 16 5z m-658 -73 c-6 -16 -7 -16 -17 1 -5 10 -7 26 -3
35 6 16 7 16 17 -1 5 -10 7 -26 3 -35z m601 3 c4 -8 3 -23 0 -32 -6 -15 -8
-15 -16 -3 -13 20 -12 50 0 50 6 0 13 -7 16 -15z m-56 -81 c14 -37 12 -70 -5
-84 -13 -10 -19 -10 -33 4 -10 9 -21 13 -25 10 -3 -3 -10 3 -16 14 -11 21 -6
32 17 32 8 0 12 -6 8 -15 -3 -9 0 -15 9 -15 17 0 21 26 5 32 -14 5 0 48 16 48
8 0 19 -12 24 -26z m-506 -60 c9 -22 -3 -32 -14 -14 -12 19 -12 30 -1 30 5 0
12 -7 15 -16z"/>
<path d="M6380 1970 c0 -5 5 -10 10 -10 6 0 10 5 10 10 0 6 -4 10 -10 10 -5 0
-10 -4 -10 -10z"/>
<path d="M6865 1280 c3 -5 8 -10 11 -10 2 0 4 5 4 10 0 6 -5 10 -11 10 -5 0
-7 -4 -4 -10z"/>
<path d="M6185 1179 c-4 -6 -5 -13 -2 -16 7 -7 27 6 27 18 0 12 -17 12 -25 -2z"/>
<path d="M6960 5706 c0 -9 5 -16 10 -16 6 0 10 4 10 9 0 6 -4 13 -10 16 -5 3
-10 -1 -10 -9z"/>
<path d="M7271 5114 c0 -11 3 -14 6 -6 3 7 2 16 -1 19 -3 4 -6 -2 -5 -13z"/>
<path d="M3553 12523 c-17 -6 -16 -33 1 -33 20 0 40 26 24 32 -7 3 -19 3 -25
1z"/>
<path d="M3549 12357 c-19 -13 -35 -32 -37 -44 -4 -25 22 -53 48 -53 48 0 81
88 41 109 -14 8 -27 5 -52 -12z"/>
<path d="M1168 8723 c7 -3 16 -2 19 1 4 3 -2 6 -13 5 -11 0 -14 -3 -6 -6z"/>
<path d="M11470 8632 c0 -5 23 -21 50 -36 28 -15 84 -59 126 -97 80 -75 106
-82 75 -20 -25 48 -95 116 -147 141 -41 20 -104 27 -104 12z"/>
<path d="M11265 8210 c-4 -6 22 -38 59 -72 86 -78 154 -167 170 -221 13 -45
39 -57 44 -20 5 35 -38 142 -78 192 -57 72 -179 148 -195 121z"/>
<path d="M1437 8000 c-16 -5 -44 -21 -63 -35 -35 -27 -94 -100 -94 -116 0 -5
30 12 68 39 37 26 91 58 120 71 29 14 51 29 49 35 -5 14 -44 17 -80 6z"/>
<path d="M1642 7469 c-56 -28 -132 -113 -132 -148 0 -24 2 -23 33 20 26 37 64
75 146 145 10 9 -7 3 -47 -17z"/>
<path d="M11001 6424 c-24 -7 -48 -18 -55 -23 -6 -5 -22 -11 -36 -13 -31 -4
-34 -36 -5 -52 17 -10 36 -29 56 -59 4 -5 40 -6 84 -2 46 5 72 11 64 16 -20
12 39 23 64 12 24 -11 35 -4 55 34 15 27 -4 101 -21 84 -13 -13 -114 -15 -119
-2 -6 16 -43 19 -87 5z m224 -64 c3 -5 1 -10 -4 -10 -6 0 -11 5 -11 10 0 6 2
10 4 10 3 0 8 -4 11 -10z"/>
<path d="M12240 5846 c0 -2 7 -9 15 -16 9 -7 15 -8 15 -2 0 5 -7 12 -15 16 -8
3 -15 4 -15 2z"/>
<path d="M12288 5843 c7 -3 16 -2 19 1 4 3 -2 6 -13 5 -11 0 -14 -3 -6 -6z"/>
<path d="M3368 563 c7 -3 16 -2 19 1 4 3 -2 6 -13 5 -11 0 -14 -3 -6 -6z"/>
<path d="M5719 440 c-25 -4 -67 -18 -95 -31 -38 -19 -54 -34 -71 -69 -12 -25
-22 -48 -23 -53 0 -16 40 -45 57 -41 10 2 87 10 171 18 178 15 188 20 170 81
-14 47 -50 81 -98 95 -39 11 -45 11 -111 0z"/>
<path d="M2763 334 c-4 -10 1 -22 12 -30 15 -12 20 -11 30 3 10 13 10 20 -1
30 -17 18 -33 16 -41 -3z"/>
<path d="M4305 305 c-53 -20 -131 -107 -144 -162 -6 -23 -11 -65 -11 -92 l0
-51 284 0 285 0 -9 28 c-46 151 -95 222 -178 260 -69 31 -169 39 -227 17z"/>
<path d="M3040 235 c0 -8 2 -15 4 -15 2 0 6 7 10 15 3 8 1 15 -4 15 -6 0 -10
-7 -10 -15z"/>
<path d="M2930 130 c0 -11 7 -20 15 -20 8 0 15 9 15 20 0 11 -7 20 -15 20 -8
0 -15 -9 -15 -20z"/>
<path d="M4905 126 c-51 -23 -115 -85 -115 -111 0 -13 32 -15 205 -15 138 0
205 3 205 11 0 6 -24 34 -52 63 -43 41 -63 54 -106 64 -72 16 -79 15 -137 -12z
m201 -73 c-4 -4 -11 -1 -16 7 -16 25 -11 35 7 17 9 -9 13 -20 9 -24z"/>
<path d="M2840 90 l-45 -7 42 -1 c23 -1 45 3 48 8 3 6 5 9 3 8 -2 0 -23 -4
-48 -8z"/>
</g>
</svg>
